<svg id="Layer_3" data-name="Layer 3" xmlns="http://www.w3.org/2000/svg" viewBox="0 0 575.1 155.67"><defs><style>.cls-1{fill:#fff;}</style></defs><title>sakh.com_logo</title><path class="cls-1" d="M440.56,37.26A40.58,40.58,0,1,0,481.1,77.88v0A40.58,40.58,0,0,0,440.56,37.26Zm-.23,64.48a24.13,24.13,0,1,1,24.13-24.13,24.13,24.13,0,0,1-24.13,24.13Z"/><path class="cls-1" d="M429.76.76c-1.62-1.61-7.11-.15-7.11-.15s-5.48,1.5-6.06,3.71c-1,3.72,9.11,23.84,11,23.34l4.5-1.21C433.9,25.94,432.48,3.48,429.76.76Z"/><path class="cls-1" d="M401,13.74c-2.13-.82-6.56,2.73-6.56,2.73s-4.4,3.59-4,5.84c.61,3.79,18,18.13,19.46,16.92l3.63-2.93C414.92,35.11,404.54,15.13,401,13.74Z"/><path class="cls-1" d="M451.16.76c1.62-1.61,7.11-.15,7.11-.15s5.48,1.5,6.07,3.71c1,3.72-9.11,23.84-11,23.34l-4.5-1.21C447,25.94,448.45,3.48,451.16.76Z"/><path class="cls-1" d="M480,13.74c2.13-.82,6.56,2.73,6.56,2.73s4.41,3.59,4,5.84c-.61,3.79-18,18.13-19.46,16.92l-3.63-2.93C466,35.11,476.39,15.13,480,13.74Z"/><path class="cls-1" d="M429.76,154.91c-1.62,1.61-7.11.15-7.11.15s-5.48-1.5-6.06-3.71c-1-3.72,9.11-23.84,11-23.34l4.51,1.25C433.9,129.73,432.48,152.19,429.76,154.91Z"/><path class="cls-1" d="M401,141.93c-2.13.82-6.56-2.73-6.56-2.73s-4.4-3.59-4-5.85c.61-3.79,18-18.13,19.46-16.92l3.63,2.93C414.92,120.57,404.54,140.54,401,141.93Z"/><path class="cls-1" d="M451.16,154.91c1.62,1.61,7.11.15,7.11.15s5.48-1.5,6.07-3.71c1-3.72-9.11-23.84-11-23.34l-4.5,1.21C447,129.73,448.45,152.19,451.16,154.91Z"/><path class="cls-1" d="M480,141.93c2.13.82,6.56-2.73,6.56-2.73s4.41-3.59,4-5.85c-.61-3.79-18-18.13-19.46-16.92l-3.63,2.93C466,120.57,476.39,140.54,480,141.93Z"/><path class="cls-1" d="M19,90.26c.41,8.58,5.72,11.34,13.79,11.34,5.72,0,11.65-2,11.65-7.46,0-6.44-10.42-7.66-20.94-10.62s-21.35-7.66-21.35-21c0-15.94,16-22.17,29.73-22.17,14.51,0,29.12,7,29.22,23.5h-19c.31-6.64-5.93-8.79-11.75-8.79-4.09,0-9.2,1.43-9.2,6.23,0,5.62,10.52,6.64,21.15,9.6s21.15,7.87,21.15,21c0,18.49-15.73,24.42-31.77,24.42C14.92,116.26.1,108.95,0,90.26Z"/><path class="cls-1" d="M96.25,41.83h19.31l27.28,73H123l-4.49-13.08H93.1l-4.6,13.08H69ZM97.48,87.6H114L106,62.06h-.21Z"/><path class="cls-1" d="M151.79,41.83h19v28l24-28h23.6l-27,28.71,30.34,44.24h-23.6L178.51,84.13l-7.71,8.13v22.48h-19Z"/><path class="cls-1" d="M230.38,41.83h19V68.39h25V41.83h19v73h-19v-30h-25v30h-19Z"/><path class="cls-1" d="M309.87,99.39h0a7.74,7.74,0,0,1,7.74,7.74h0a7.74,7.74,0,0,1-7.74,7.74h0a7.74,7.74,0,0,1-7.74-7.74h0A7.74,7.74,0,0,1,309.87,99.39Z"/><path class="cls-1" d="M369.62,67.88c-1-7.36-6.74-11.24-14.71-11.24-12.26,0-17,10.83-17,21.66s4.7,21.66,17,21.66c8.89,0,14-5.11,14.71-13.49h19c-1,18.79-14.81,29.79-33.31,29.79-22.07,0-36.37-16.86-36.37-38s14.3-38,36.37-38c15.73,0,32.79,10,33.31,27.59Z"/><path class="cls-1" d="M493.77,41.83h28l12.57,48.63h.2L547.1,41.83h28v73H557.22V59.4H557l-15.32,55.37H527.18L511.86,59.4h-.2v55.37H493.77Z"/></svg>