<svg xmlns="http://www.w3.org/2000/svg" width="146.46" height="39.02" viewBox="0 0 144.36 39.04"><defs><style>.cls-1,.cls-2{fill:#ff4f02;fill-rule:evenodd}.cls-2{fill:#1299dd}</style></defs><path class="cls-1" d="M110.59 9.34a10.18 10.18 0 1 0 10.19 10.18 10.18 10.18 0 0 0-10.19-10.18zm-.06 16.17a6.05 6.05 0 1 1 6.06-6.05 6.05 6.05 0 0 1-6.06 6.05zM107.88.19c-.41-.4-1.78 0-1.78 0s-1.38.38-1.52.93c-.24.93 2.29 6 2.75 5.85l1.13-.3c.46-.13.11-5.76-.57-6.44M100.64 3.45c-.53-.21-1.65.69-1.65.69s-1.1.9-1 1.47c.15 1 4.51 4.55 4.88 4.24l.91-.74c.37-.3-2.23-5.31-3.13-5.66M113.25.19c.41-.4 1.78 0 1.78 0s1.38.38 1.52.93c.24.93-2.29 6-2.75 5.85l-1.13-.3c-.46-.13-.11-5.76.57-6.44M120.48 3.45c.54-.21 1.65.69 1.65.69s1.11.9 1 1.47c-.15 1-4.51 4.55-4.88 4.24l-.91-.74c-.37-.3 2.23-5.31 3.13-5.66M107.88 38.85c-.41.4-1.78 0-1.78 0s-1.38-.38-1.52-.93c-.24-.93 2.29-6 2.75-5.85l1.13.3c.46.13.11 5.76-.57 6.44M100.64 35.59c-.53.21-1.65-.69-1.65-.69s-1.1-.9-1-1.47c.15-1 4.51-4.55 4.88-4.24l.91.74c.37.3-2.23 5.31-3.13 5.66M113.25 38.85c.41.4 1.78 0 1.78 0s1.38-.38 1.52-.93c.24-.93-2.29-6-2.75-5.85l-1.13.3c-.46.13-.11 5.76.57 6.44M120.48 35.59c.54.21 1.65-.69 1.65-.69s1.11-.9 1-1.47c-.15-1-4.51-4.55-4.88-4.24l-.91.74c-.37.3 2.23 5.31 3.13 5.66"/><path class="cls-2" d="M4.77 22.63c.1 2.15 1.44 2.84 3.46 2.84 1.44 0 2.92-.51 2.92-1.87 0-1.61-2.62-1.92-5.26-2.66S.54 19 .54 15.66c0-4 4-5.56 7.46-5.56 3.64 0 7.31 1.77 7.33 5.89h-4.76c.08-1.67-1.49-2.2-2.95-2.2-1 0-2.31.36-2.31 1.56 0 1.41 2.64 1.67 5.31 2.41s5.31 2 5.31 5.28c0 4.64-3.95 6.12-8 6.12-4.21 0-7.92-1.84-8-6.53h4.84M24.16 10.49H29l6.85 18.29h-5l-1.1-3.28h-6.39l-1.15 3.28h-4.9zM24.47 22h4.15l-2-6.41h-.05zM38.1 10.49h4.77v7.02l6.03-7.02h5.92l-6.77 7.2 7.62 11.09h-5.93l-4.92-7.68-1.95 2.05v5.63H38.1V10.49M57.83 10.49h4.77v6.66h6.28v-6.66h4.77v18.29h-4.77v-7.53H62.6v7.53h-4.77V10.49M77.78 24.92a1.94 1.94 0 0 1 1.94 1.94 1.94 1.94 0 0 1-1.94 1.94 1.94 1.94 0 0 1-1.94-1.94 1.94 1.94 0 0 1 1.94-1.94M92.78 17c-.26-1.84-1.69-2.82-3.69-2.82-3.08 0-4.26 2.72-4.26 5.43s1.18 5.43 4.26 5.43a3.4 3.4 0 0 0 3.69-3.38h4.77c-.26 4.71-3.72 7.48-8.36 7.48-5.54 0-9.13-4.23-9.13-9.53s3.59-9.53 9.13-9.53c3.95 0 8.23 2.51 8.36 6.92h-4.77M123.94 10.49h7.03l3.16 12.19h.05l3.15-12.19h7.03v18.29h-4.49V14.9h-.05l-3.85 13.88h-3.64l-3.85-13.88h-.05v13.88h-4.49V10.49"/></svg>